<svg width="24" height="24" viewBox="0 0 24 24" fill="#ffffff" xmlns="http://www.w3.org/2000/svg">
<g clip-path="url(#clip0)">
<path d="M0.264098 23.771H5.2481C5.5121 23.771 5.7461 23.624 5.8931 23.419L19.6141 0.874004C19.7901 0.581004 19.5851 0.229004 19.2331 0.229004H14.5131C14.2781 0.229004 14.0731 0.346004 13.9561 0.552004L0.0300984 23.361C-0.0579016 23.537 0.0590984 23.771 0.264098 23.771ZM17.4451 23.419L23.9241 13.011C24.1291 12.688 23.8951 12.278 23.5141 12.278H18.8231C18.6471 12.278 18.4711 12.366 18.3831 12.513L11.7281 23.156C11.5521 23.42 11.7571 23.772 12.0801 23.772H16.8591C17.0931 23.771 17.3271 23.654 17.4451 23.419V23.419Z" fill="black"/>
</g>
<defs>
<clipPath id="clip0">
<rect width="24" height="24" fill="white"/>
</clipPath>
</defs>
</svg>
